<?xml version="1.0" standalone="no"?>
<!DOCTYPE svg PUBLIC "-//W3C//DTD SVG 20010904//EN"
 "http://www.w3.org/TR/2001/REC-SVG-20010904/DTD/svg10.dtd">
<svg version="1.0" xmlns="http://www.w3.org/2000/svg"
 width="512.000000pt" height="512.000000pt" viewBox="0 0 512.000000 512.000000"
 preserveAspectRatio="xMidYMid meet">
<metadata>
Created by potrace 1.11, written by Peter Selinger 2001-2013
</metadata>
<g transform="translate(0.000000,512.000000) scale(0.100000,-0.100000)"
fill="#000000" stroke="none">
<path d="M2523 4948 c-12 -6 -50 -53 -84 -104 -34 -52 -66 -94 -70 -94 -5 0
-68 29 -139 65 -71 36 -141 65 -155 65 -30 0 -75 -41 -75 -68 0 -10 20 -117
44 -237 37 -183 48 -222 66 -237 21 -17 54 -18 450 -18 396 0 429 1 450 18 18
15 29 54 66 237 24 120 44 227 44 237 0 27 -45 68 -75 68 -14 0 -84 -29 -155
-65 -71 -36 -134 -65 -139 -65 -4 0 -36 42 -70 94 -73 110 -104 130 -158 104z
m91 -294 c73 -112 85 -115 217 -48 50 25 92 44 94 42 2 -2 -4 -40 -13 -85
l-16 -83 -336 0 -336 0 -16 83 c-9 45 -15 83 -13 85 2 2 44 -17 94 -42 132
-67 144 -64 217 48 27 42 51 76 54 76 3 0 27 -34 54 -76z"/>
<path d="M1600 4227 c-49 -16 -133 -102 -148 -153 -17 -59 -17 -1369 0 -1428
16 -55 99 -138 154 -154 31 -9 267 -12 956 -12 1038 0 975 -5 1051 80 24 26
49 66 55 88 17 56 17 1368 0 1424 -6 22 -31 62 -55 88 -76 85 -12 80 -1057 79
-641 -1 -932 -4 -956 -12z m1895 -172 c21 -20 25 -34 25 -80 l0 -55 -960 0
-960 0 0 55 c0 46 4 60 25 80 l24 25 911 0 911 0 24 -25z m25 -830 l0 -536
-25 -24 -24 -25 -911 0 -911 0 -24 25 -25 24 0 536 0 535 960 0 960 0 0 -535z"/>
<path d="M1760 3520 l0 -80 360 0 360 0 0 80 0 80 -360 0 -360 0 0 -80z"/>
<path d="M2640 3520 l0 -80 360 0 360 0 0 80 0 80 -360 0 -360 0 0 -80z"/>
<path d="M1760 3200 l0 -80 360 0 360 0 0 80 0 80 -360 0 -360 0 0 -80z"/>
<path d="M2640 3200 l0 -80 360 0 360 0 0 80 0 80 -360 0 -360 0 0 -80z"/>
<path d="M1760 2880 l0 -80 360 0 360 0 0 80 0 80 -360 0 -360 0 0 -80z"/>
<path d="M2640 2880 l0 -80 360 0 360 0 0 80 0 80 -360 0 -360 0 0 -80z"/>
<path d="M1223 2218 l-183 -182 0 77 c0 69 -3 81 -25 102 -15 16 -36 25 -55
25 -19 0 -40 -9 -55 -25 -25 -24 -25 -26 -25 -215 0 -257 -17 -240 240 -240
189 0 191 0 215 25 33 32 33 78 0 110 -21 22 -33 25 -102 25 l-78 0 177 178
c97 97 179 187 183 200 15 50 -30 102 -87 102 -15 0 -82 -60 -205 -182z"/>
<path d="M2505 2375 c-24 -24 -25 -28 -25 -181 l0 -157 -64 61 c-36 35 -73 62
-85 62 -55 0 -100 -52 -88 -102 4 -13 69 -85 145 -161 182 -180 162 -180 343
-1 76 76 140 148 144 162 13 51 -30 102 -86 102 -12 0 -49 -27 -85 -62 l-64
-61 0 157 c0 153 -1 157 -25 181 -15 16 -36 25 -55 25 -19 0 -40 -9 -55 -25z"/>
<path d="M3644 2388 c-24 -11 -44 -48 -44 -80 0 -15 60 -82 182 -205 l182
-183 -77 0 c-69 0 -81 -3 -102 -25 -16 -15 -25 -36 -25 -55 0 -19 9 -40 25
-55 24 -25 26 -25 215 -25 257 0 240 -17 240 240 0 189 0 191 -25 215 -15 16
-36 25 -55 25 -19 0 -40 -9 -55 -25 -22 -21 -25 -33 -25 -102 l0 -77 -183 182
c-190 189 -201 196 -253 170z"/>
<path d="M320 1587 c-49 -16 -133 -102 -148 -153 -17 -59 -17 -1049 0 -1108
16 -55 99 -138 154 -154 30 -9 181 -12 556 -12 590 0 578 -2 651 80 24 26 49
66 55 88 17 56 17 1048 0 1104 -6 22 -31 62 -55 88 -73 82 -60 80 -657 79
-349 -1 -533 -5 -556 -12z m1095 -172 c21 -20 25 -34 25 -80 l0 -55 -560 0
-560 0 0 55 c0 46 4 60 25 80 l24 25 511 0 511 0 24 -25z m25 -670 l0 -376
-25 -24 -24 -25 -511 0 -511 0 -24 25 -25 24 0 376 0 375 560 0 560 0 0 -375z"/>
<path d="M480 960 l0 -80 400 0 400 0 0 80 0 80 -400 0 -400 0 0 -80z"/>
<path d="M480 720 l0 -80 400 0 400 0 0 80 0 80 -400 0 -400 0 0 -80z"/>
<path d="M480 480 l0 -80 400 0 400 0 0 80 0 80 -400 0 -400 0 0 -80z"/>
<path d="M2000 1587 c-49 -16 -133 -102 -148 -153 -17 -59 -17 -1049 0 -1108
16 -55 99 -138 154 -154 30 -9 181 -12 556 -12 590 0 578 -2 651 80 24 26 49
66 55 88 17 56 17 1048 0 1104 -6 22 -31 62 -55 88 -73 82 -60 80 -657 79
-349 -1 -533 -5 -556 -12z m1095 -172 c21 -20 25 -34 25 -80 l0 -55 -560 0
-560 0 0 55 c0 46 4 60 25 80 l24 25 511 0 511 0 24 -25z m25 -670 l0 -376
-25 -24 -24 -25 -511 0 -511 0 -24 25 -25 24 0 376 0 375 560 0 560 0 0 -375z"/>
<path d="M2160 960 l0 -80 400 0 400 0 0 80 0 80 -400 0 -400 0 0 -80z"/>
<path d="M2160 720 l0 -80 400 0 400 0 0 80 0 80 -400 0 -400 0 0 -80z"/>
<path d="M2160 480 l0 -80 400 0 400 0 0 80 0 80 -400 0 -400 0 0 -80z"/>
<path d="M3680 1587 c-49 -16 -133 -102 -148 -153 -17 -59 -17 -1049 0 -1108
16 -55 99 -138 154 -154 30 -9 181 -12 556 -12 590 0 578 -2 651 80 24 26 49
66 55 88 17 56 17 1048 0 1104 -6 22 -31 62 -55 88 -73 82 -60 80 -657 79
-349 -1 -533 -5 -556 -12z m1095 -172 c21 -20 25 -34 25 -80 l0 -55 -560 0
-560 0 0 55 c0 46 4 60 25 80 l24 25 511 0 511 0 24 -25z m25 -670 l0 -376
-25 -24 -24 -25 -511 0 -511 0 -24 25 -25 24 0 376 0 375 560 0 560 0 0 -375z"/>
<path d="M3840 960 l0 -80 400 0 400 0 0 80 0 80 -400 0 -400 0 0 -80z"/>
<path d="M3840 720 l0 -80 400 0 400 0 0 80 0 80 -400 0 -400 0 0 -80z"/>
<path d="M3840 480 l0 -80 400 0 400 0 0 80 0 80 -400 0 -400 0 0 -80z"/>
</g>
</svg>
